<!-- original icon "Balloon" by Yuko Iwai from the Non Project : 3664 -->
<!-- adapted by Kiril Vatev -->
<svg xmlns="http://www.w3.org/2000/svg" viewBox="0 0 100 100" version="1.1" >
  <defs>
    <filter id="glow" width="300%" x="-100%" height="300%" y="-100%">
      <feGaussianBlur stdDeviation="3.5" />
    </filter>
  </defs>

  <style>
    .fade { opacity: 0.2; }
    .red { fill: #9c1010; }
    .white { fill: #ffffff; }
  </style>

  <circle cx="50" cy="50" r="50" class="white" />
  <circle cx="50" cy="50" r="50" class="red fade" />
  <circle filter="url(#glow)" cx="50" cy="50" r="50" class="white" />
  <path class="red" d="M51.619,65.284C51.764,66.028 52.362,66.243 52.948,65.76L57.037,62.389C57.622,61.906 57.574,61.182 56.93,60.781L52.352,57.923C58.105,55.773 66.265,46.033 66.265,36.523C66.265,27.003 59.078,19.286 50.214,19.286C41.349,19.286 34.163,27.004 34.163,36.523C34.163,46.562 43.417,57.03 49.163,58.245C47.422,62.659 45.503,70.988 50.722,79.637C50.916,79.959 51.259,80.137 51.609,80.137C51.792,80.137 51.975,80.09 52.143,79.988C52.632,79.693 52.79,79.057 52.494,78.567C48.252,71.536 49.267,64.588 50.651,60.322L51.619,65.284ZM44.05,78.678C37.853,74.773 35.396,69.067 34.438,64.709C37.248,63.364 40.584,60.026 42.735,55.954C37.702,51.622 32.929,44.033 32.929,36.524C32.929,35.658 32.989,34.808 33.097,33.975C32.751,33.945 32.404,33.917 32.05,33.917C24.919,33.917 19.138,40.125 19.138,47.784C19.138,55.862 26.584,64.284 31.207,65.259L28.11,67.036C27.452,67.414 27.408,68.098 28.013,68.556L30.925,70.764C31.529,71.222 32.153,70.99 32.311,70.248L33.109,66.486C34.346,70.956 37.094,76.334 43.13,80.138C43.273,80.228 43.433,80.27 43.59,80.27C43.876,80.27 44.156,80.128 44.321,79.867C44.575,79.465 44.453,78.933 44.05,78.678ZM81.078,47.784C81.078,40.125 75.333,33.917 68.245,33.917C67.936,33.917 67.632,33.944 67.329,33.967C67.437,34.803 67.498,35.656 67.498,36.524C67.498,41.628 65.236,47.363 61.293,52.257C60.128,53.704 58.901,54.973 57.668,56.034C59.808,60.071 63.098,63.375 65.873,64.711C64.925,69.067 62.485,74.767 56.314,78.68C55.911,78.934 55.791,79.468 56.046,79.87C56.211,80.13 56.49,80.271 56.776,80.271C56.934,80.271 57.094,80.228 57.237,80.137C63.232,76.336 65.964,70.964 67.195,66.497L67.986,70.248C68.143,70.99 68.765,71.222 69.368,70.761L72.253,68.56C72.856,68.1 72.813,67.413 72.155,67.033L69.083,65.259C73.676,64.284 81.078,55.862 81.078,47.784Z" />
</svg>
