<!-- original icon "Ferris Wheel" by Anton Barbarov from the Noun Project -->
<!-- adapted by Kiril Vatev -->
<svg xmlns="http://www.w3.org/2000/svg" viewBox="0 0 44 44" version="1.1" xml:space="preserve">
  <defs>
    <filter id="glow" width="300%" x="-100%" height="300%" y="-100%">
      <feGaussianBlur stdDeviation="0.15" />
    </filter>

    <g id="shape">
      <path d="M32.88 31.5L32.77 30.65 37.37 30.65 37.23 31.5 32.88 31.5ZM20.26 29.23C20.36 29.24 20.46 29.26 20.56 29.27 20.75 29.9 21.33 30.37 22.05 30.37 22.77 30.37 23.36 29.9 23.55 29.27 23.73 29.24 23.92 29.21 24.11 29.18L24.65 31.5 19.73 31.5 20.26 29.23ZM21.55 28.87C21.55 28.61 21.78 28.39 22.05 28.39 22.33 28.39 22.56 28.61 22.56 28.87 22.56 29.13 22.33 29.35 22.05 29.35 21.78 29.35 21.56 29.14 21.55 28.87L21.55 28.87C21.55 28.87 21.55 28.87 21.55 28.87ZM15.87 26.25C15.95 26.07 16 25.87 16 25.66 16 24.83 15.29 24.15 14.42 24.15 14.24 24.15 14.08 24.2 13.92 24.25 13.06 23.06 12.5 21.69 12.29 20.24 12.82 20 13.2 19.49 13.2 18.89 13.2 18.29 12.82 17.78 12.29 17.54 12.51 16.11 13.06 14.77 13.91 13.59 14.07 13.65 14.24 13.69 14.42 13.69 15.29 13.69 16 13.02 16 12.19 16 11.97 15.95 11.77 15.86 11.59 17.25 10.51 18.89 9.83 20.66 9.59 20.93 10.07 21.44 10.41 22.05 10.41 22.66 10.41 23.18 10.07 23.44 9.58 25.23 9.82 26.9 10.5 28.31 11.58 28.24 11.75 28.19 11.93 28.19 12.12 28.19 12.94 28.9 13.62 29.77 13.62 29.93 13.62 30.07 13.57 30.22 13.53 31.1 14.73 31.67 16.1 31.89 17.54 31.35 17.77 30.97 18.29 30.97 18.89 30.97 19.49 31.35 20.01 31.9 20.25 31.68 21.69 31.12 23.06 30.26 24.25 30.1 24.2 29.95 24.15 29.77 24.15 28.9 24.15 28.19 24.83 28.19 25.66 28.19 25.87 28.25 26.07 28.33 26.25 27.32 27.02 26.16 27.6 24.92 27.95L24.45 25.96C24.38 25.69 24.09 25.51 23.81 25.58 23.52 25.64 23.33 25.91 23.4 26.19L23.87 28.18C23.74 28.2 23.61 28.23 23.48 28.24 23.23 27.73 22.69 27.37 22.05 27.37 21.42 27.37 20.88 27.73 20.63 28.25 20.59 28.24 20.54 28.23 20.5 28.23L21.15 25.46C21.49 25.51 21.83 25.56 22.18 25.56 23.06 25.56 23.92 25.41 24.73 25.11 25.01 25.01 25.15 24.71 25.04 24.45 24.93 24.19 24.63 24.06 24.35 24.16 23.65 24.41 22.93 24.54 22.18 24.54 21.91 24.54 21.65 24.49 21.39 24.46L22.09 21.48C22.12 21.48 22.15 21.49 22.18 21.49 22.22 21.49 22.25 21.48 22.29 21.48L22.77 23.53C22.83 23.81 23.13 23.98 23.41 23.92 23.7 23.85 23.89 23.58 23.82 23.31L23.34 21.25C24.32 20.83 25.02 19.89 25.02 18.79 25.02 17.3 23.74 16.09 22.18 16.09 21.72 16.09 21.26 16.2 20.85 16.4 20.59 16.53 20.49 16.84 20.63 17.09 20.77 17.35 21.1 17.44 21.35 17.31 21.61 17.18 21.89 17.11 22.18 17.11 23.15 17.11 23.94 17.87 23.94 18.79 23.94 19.39 23.59 19.9 23.09 20.19L22.72 18.63C22.6 18.16 21.78 18.16 21.67 18.63L21.29 20.21C20.78 19.91 20.42 19.4 20.42 18.79 20.42 18.58 20.45 18.38 20.53 18.19 20.64 17.92 20.5 17.63 20.22 17.53 19.95 17.43 19.63 17.56 19.53 17.82 19.4 18.13 19.34 18.46 19.34 18.79 19.34 19.9 20.04 20.84 21.04 21.26L20.34 24.24C19.6 24.01 18.93 23.66 18.35 23.2L19.8 21.81C20.01 21.61 20.01 21.29 19.8 21.09 19.59 20.89 19.25 20.89 19.04 21.09L17.58 22.48C16.83 21.62 16.34 20.57 16.2 19.4L18.31 19.4C18.6 19.4 18.84 19.17 18.84 18.89 18.84 18.61 18.6 18.38 18.31 18.38L16.18 18.38C16.27 17.18 16.74 16.1 17.49 15.21L19.04 16.69C19.15 16.79 19.28 16.84 19.42 16.84 19.56 16.84 19.7 16.79 19.8 16.69 20.01 16.49 20.01 16.17 19.8 15.97L18.24 14.47C19.15 13.71 20.3 13.22 21.58 13.1L21.58 15.27C21.58 15.55 21.82 15.78 22.11 15.78 22.41 15.78 22.65 15.55 22.65 15.27L22.65 13.09C23.94 13.19 25.12 13.67 26.05 14.42L24.43 15.97C24.22 16.17 24.21 16.49 24.42 16.69 24.53 16.79 24.67 16.84 24.81 16.84 24.94 16.84 25.08 16.79 25.19 16.69L26.81 15.15C27.59 16.04 28.08 17.15 28.17 18.38L25.92 18.38C25.62 18.38 25.38 18.61 25.38 18.89 25.38 19.17 25.62 19.4 25.92 19.4L28.18 19.4C28.1 20.13 27.88 20.83 27.52 21.48 27.38 21.73 27.48 22.04 27.74 22.17 28 22.3 28.33 22.2 28.47 21.95 28.91 21.17 29.17 20.29 29.25 19.4L30.07 19.4C30.36 19.4 30.6 19.17 30.6 18.89 30.6 18.61 30.36 18.38 30.07 18.38L29.25 18.38C29.15 16.87 28.54 15.51 27.57 14.42L28.12 13.9C28.33 13.7 28.33 13.38 28.12 13.18 27.91 12.98 27.57 12.98 27.36 13.18L26.81 13.7C25.68 12.76 24.24 12.17 22.65 12.07L22.65 11.32C22.65 11.04 22.41 10.81 22.11 10.81 21.82 10.81 21.58 11.04 21.58 11.32L21.58 12.08C20 12.21 18.59 12.81 17.47 13.75L16.87 13.18C16.66 12.98 16.32 12.98 16.11 13.18 15.9 13.38 15.9 13.7 16.11 13.9L16.73 14.49C15.79 15.56 15.2 16.9 15.11 18.38L14.16 18.38C13.86 18.38 13.62 18.61 13.62 18.89 13.62 19.17 13.86 19.4 14.16 19.4L15.13 19.4C15.27 20.85 15.88 22.16 16.82 23.2L16.11 23.88C15.9 24.08 15.9 24.4 16.11 24.6 16.22 24.7 16.35 24.75 16.49 24.75 16.63 24.75 16.77 24.7 16.87 24.6L17.59 23.92C18.32 24.51 19.17 24.96 20.11 25.23L19.45 28.01C18.15 27.66 16.93 27.07 15.87 26.25ZM13.92 25.66C13.92 25.39 14.14 25.18 14.42 25.18 14.7 25.18 14.92 25.39 14.92 25.66 14.92 25.92 14.7 26.13 14.42 26.13 14.14 26.13 13.92 25.92 13.92 25.66ZM11.62 18.41C11.62 18.41 11.62 18.41 11.63 18.41 11.63 18.42 11.64 18.42 11.64 18.42 11.91 18.43 12.12 18.63 12.12 18.89 12.12 19.15 11.91 19.36 11.64 19.36L11.63 19.36C11.63 19.36 11.62 19.36 11.62 19.37 11.35 19.36 11.12 19.15 11.12 18.89 11.12 18.63 11.34 18.42 11.62 18.41ZM14.42 11.71C14.54 11.71 14.64 11.75 14.73 11.82L14.73 11.82C14.74 11.84 14.76 11.84 14.78 11.86 14.86 11.94 14.92 12.06 14.92 12.19 14.92 12.45 14.7 12.67 14.42 12.67 14.29 12.67 14.17 12.62 14.09 12.54 14.08 12.53 14.07 12.52 14.06 12.51 14.06 12.51 14.05 12.51 14.05 12.51 13.97 12.42 13.92 12.31 13.92 12.19 13.92 11.93 14.14 11.71 14.42 11.71ZM22.05 8.44C22.33 8.44 22.56 8.65 22.56 8.91 22.56 9.18 22.33 9.39 22.05 9.39 21.8 9.39 21.59 9.21 21.56 8.97 21.56 8.97 21.56 8.96 21.56 8.96 21.56 8.94 21.55 8.93 21.55 8.91 21.55 8.65 21.78 8.44 22.05 8.44ZM30.28 12.12C30.28 12.38 30.05 12.59 29.77 12.59 29.5 12.59 29.27 12.38 29.27 12.12 29.27 11.99 29.33 11.87 29.41 11.79 29.42 11.78 29.42 11.78 29.42 11.78 29.42 11.78 29.42 11.78 29.42 11.78 29.51 11.69 29.64 11.64 29.77 11.64 30.05 11.64 30.28 11.85 30.28 12.12ZM32.56 19.36C32.56 19.36 32.56 19.36 32.55 19.36 32.55 19.36 32.55 19.36 32.54 19.36 32.27 19.36 32.05 19.15 32.05 18.89 32.05 18.63 32.26 18.43 32.53 18.42 32.54 18.42 32.55 18.42 32.56 18.41L32.56 18.41C32.83 18.42 33.05 18.63 33.05 18.89 33.05 19.15 32.83 19.36 32.56 19.36ZM29.77 26.13C29.5 26.13 29.27 25.92 29.27 25.66 29.27 25.39 29.5 25.18 29.77 25.18 29.91 25.18 30.02 25.23 30.11 25.31 30.12 25.31 30.12 25.31 30.12 25.32 30.12 25.32 30.13 25.32 30.13 25.32 30.22 25.41 30.28 25.52 30.28 25.66 30.28 25.92 30.05 26.13 29.77 26.13ZM38.73 31.5L38.32 31.5 38.53 30.22C38.55 30.07 38.51 29.92 38.41 29.81 38.3 29.69 38.15 29.63 38 29.63L36.54 29.63 36.54 29.24C36.54 28.96 36.3 28.73 36 28.73 35.7 28.73 35.46 28.96 35.46 29.24L35.46 29.63 35.14 29.63 35.14 26.89C35.14 26.12 34.48 25.49 33.66 25.49 32.85 25.49 32.18 26.12 32.18 26.89 32.18 27.18 32.42 27.41 32.72 27.41 33.02 27.41 33.26 27.18 33.26 26.89 33.26 26.68 33.44 26.51 33.66 26.51 33.88 26.51 34.06 26.68 34.06 26.89L34.06 29.63 32.16 29.63C32 29.63 31.86 29.69 31.75 29.8 31.65 29.91 31.6 30.06 31.62 30.21L31.8 31.5 25.76 31.5 25.15 28.95C26.58 28.56 27.92 27.89 29.08 26.99 29.29 27.09 29.52 27.16 29.77 27.16 30.64 27.16 31.35 26.48 31.35 25.66 31.35 25.37 31.24 25.12 31.1 24.89 32.1 23.54 32.74 21.97 32.97 20.31 33.63 20.13 34.13 19.58 34.13 18.89 34.13 18.2 33.63 17.65 32.97 17.47 32.73 15.83 32.08 14.27 31.07 12.91 31.24 12.68 31.35 12.42 31.35 12.12 31.35 11.29 30.64 10.61 29.77 10.61 29.5 10.61 29.25 10.7 29.03 10.82 27.45 9.59 25.57 8.82 23.56 8.57 23.39 7.91 22.79 7.41 22.05 7.41 21.31 7.41 20.71 7.91 20.55 8.57 18.54 8.84 16.68 9.62 15.11 10.85 14.9 10.75 14.67 10.69 14.42 10.69 13.55 10.69 12.84 11.36 12.84 12.19 12.84 12.47 12.94 12.71 13.08 12.94 12.09 14.28 11.46 15.83 11.22 17.47 10.55 17.64 10.05 18.2 10.05 18.89 10.05 19.58 10.55 20.14 11.21 20.31 11.44 21.97 12.08 23.54 13.09 24.9 12.95 25.13 12.84 25.37 12.84 25.66 12.84 26.48 13.55 27.16 14.42 27.16 14.67 27.16 14.9 27.09 15.11 26.99 16.32 27.93 17.72 28.62 19.21 29L18.63 31.5 17.25 31.5C16.96 31.5 16.72 31.72 16.72 32.01 16.72 32.29 16.96 32.52 17.25 32.52L38.73 32.52C39.03 32.52 39.27 32.29 39.27 32.01 39.27 31.72 39.03 31.5 38.73 31.5Z" />
      <path d="M15.65 31.5L13.8 31.5C13.5 31.5 13.26 31.72 13.26 32.01 13.26 32.29 13.5 32.52 13.8 32.52L15.65 32.52C15.95 32.52 16.18 32.29 16.18 32.01 16.18 31.72 15.95 31.5 15.65 31.5" />
      <path d="M6.43 28.28C6.43 28.06 6.53 27.89 6.64 27.69 6.72 27.55 6.8 27.4 6.85 27.24 6.94 26.91 6.9 26.63 6.87 26.41 6.86 26.35 6.85 26.28 6.85 26.23 6.85 26.07 6.89 25.91 6.96 25.76 7.13 25.4 7.3 24.96 7.25 24.47 7.24 24.36 7.25 24.25 7.29 24.14 7.38 23.89 7.61 23.7 7.86 23.64 7.99 23.61 8.12 23.61 8.25 23.64 8.5 23.7 8.73 23.89 8.82 24.14 8.86 24.25 8.87 24.36 8.86 24.47 8.8 24.96 8.97 25.4 9.15 25.76 9.22 25.91 9.25 26.06 9.25 26.23 9.25 26.28 9.24 26.35 9.23 26.41 9.21 26.63 9.17 26.91 9.26 27.23 9.31 27.4 9.39 27.55 9.47 27.69 9.58 27.89 9.68 28.06 9.68 28.28 9.68 28.95 9.22 29.51 8.59 29.72L8.59 26.34C8.59 26.06 8.35 25.83 8.05 25.83 7.76 25.83 7.52 26.06 7.52 26.34L7.52 29.72C6.89 29.51 6.43 28.95 6.43 28.28M11.04 31.5L8.59 31.5 8.59 30.8C9.82 30.56 10.75 29.52 10.75 28.28 10.75 27.81 10.56 27.46 10.42 27.21 10.37 27.11 10.32 27.02 10.3 26.96 10.26 26.84 10.28 26.7 10.3 26.54 10.32 26.43 10.33 26.32 10.33 26.23 10.33 25.92 10.26 25.62 10.13 25.34 10.01 25.1 9.9 24.82 9.93 24.58 9.96 24.32 9.93 24.06 9.84 23.8 9.62 23.22 9.1 22.77 8.48 22.64 8.2 22.58 7.91 22.58 7.63 22.64 7.01 22.77 6.49 23.22 6.27 23.8 6.18 24.06 6.15 24.32 6.18 24.58 6.21 24.82 6.09 25.1 5.98 25.34 5.85 25.62 5.78 25.92 5.78 26.23 5.78 26.32 5.79 26.43 5.81 26.54 5.83 26.7 5.85 26.84 5.81 26.96 5.79 27.02 5.74 27.11 5.69 27.21 5.55 27.46 5.35 27.81 5.35 28.28 5.35 29.52 6.29 30.56 7.52 30.8L7.52 31.5 5.27 31.5C4.97 31.5 4.73 31.72 4.73 32.01 4.73 32.29 4.97 32.52 5.27 32.52L11.04 32.52C11.33 32.52 11.57 32.29 11.57 32.01 11.57 31.72 11.33 31.5 11.04 31.5" />
      <path d="M25.19 21.09C24.98 20.89 24.63 20.89 24.43 21.09 24.21 21.29 24.22 21.61 24.43 21.81L27.36 24.6C27.46 24.7 27.6 24.75 27.74 24.75 27.87 24.75 28.01 24.7 28.12 24.6 28.33 24.4 28.33 24.08 28.12 23.88L25.19 21.09Z" />
      <path d="M35.46 27.07L35.46 27.92C35.46 28.2 35.7 28.43 36 28.43 36.3 28.43 36.54 28.2 36.54 27.92L36.54 27.67 37.4 27.29C37.49 27.46 37.67 27.58 37.88 27.58 38.18 27.58 38.42 27.35 38.42 27.07 38.42 26.29 37.76 25.66 36.94 25.66 36.13 25.66 35.46 26.29 35.46 27.07" />
      <path d="M35.33 25.6C35.62 25.6 35.87 25.37 35.87 25.08L35.87 24.84 36.14 24.72C36.23 24.89 36.41 25.01 36.62 25.01 36.92 25.01 37.16 24.78 37.16 24.5 37.16 23.88 36.63 23.37 35.98 23.37 35.32 23.37 34.79 23.88 34.79 24.5L34.79 25.08C34.79 25.37 35.03 25.6 35.33 25.6" />
      <path d="M33.26 28.54L33.26 28.42C33.26 28.14 33.02 27.97 32.72 27.97 32.42 27.97 32.18 28.26 32.18 28.54 32.18 28.83 32.42 29.06 32.72 29.06 33.02 29.06 33.26 28.83 33.26 28.54" />
      <path d="M24.62 35.43L22.74 35.43C22.53 35.43 22.36 35.26 22.36 35.05 22.36 34.85 22.53 34.68 22.74 34.68L23.15 34.68C23.49 34.68 23.76 34.42 23.76 34.1 23.76 33.78 23.49 33.52 23.15 33.52L19.42 33.52C19.09 33.52 18.81 33.78 18.81 34.1 18.81 34.42 19.09 34.68 19.42 34.68L21.23 34.68C21.45 34.68 21.63 34.85 21.63 35.05 21.63 35.26 21.45 35.43 21.23 35.43L20.88 35.43C20.54 35.43 20.27 35.69 20.27 36 20.27 36.33 20.54 36.59 20.88 36.59L24.62 36.59C24.95 36.59 25.22 36.33 25.22 36 25.22 35.69 24.95 35.43 24.62 35.43" />
      <path d="M27.17 35.43L26.31 35.43C25.98 35.43 25.7 35.69 25.7 36 25.7 36.33 25.98 36.59 26.31 36.59L27.17 36.59C27.5 36.59 27.78 36.33 27.78 36 27.78 35.69 27.5 35.43 27.17 35.43" />
      <path d="M17.83 33.52L17.48 33.52C17.15 33.52 16.88 33.78 16.88 34.1 16.88 34.42 17.15 34.68 17.48 34.68L17.83 34.68C18.16 34.68 18.43 34.42 18.43 34.1 18.43 33.78 18.16 33.52 17.83 33.52" />
    </g>
  </defs>

  <circle fill="#8bc6d4" cx="22" cy="22" r="22" />
  <use fill="#1c97b9" filter="url(#glow)" href="#shape" x="0" y="0" />
  <use fill="#fff" href="#shape" x="0" y="0" />
</svg>
